# xmcd CD database file
#
# Track frame offsets:
#	150
#	22840
#	47222
#	69382
#	99277
#	119615
#	143810
#	175305
#	192334
#	212565
#
# Disc length: 3239 seconds
#
# Revision: 0
# Processed by: cddbd v1.5.2PL0 Copyright (c) Steve Scherf et al.
# Submitted via: CDex 1.51
#
DISCID=890ca50a
DTITLE=Tail Dragger and Bob Corritore - Longtime Friends In The Blues
DYEAR=2012
DGENRE=Blues
TTITLE0=I'm Worried
TTITLE1=Sugar Mama
TTITLE2=Birthday Blues
TTITLE3=She's Worryin' Me
TTITLE4=Cold Outdoors
TTITLE5=So Ezee
TTITLE6=Through With You
TTITLE7=Done Got Old
TTITLE8=Boogie Woogie Ball
TTITLE9=	 - Please Mr. Jailer
EXTD=YEAR: 2012
EXTT0=
EXTT1=
EXTT2=
EXTT3=
EXTT4=
EXTT5=
EXTT6=
EXTT7=
EXTT8=
EXTT9=
PLAYORDER=
